# xmcd
#
# Track frame offsets:
#	162
#	11405
#	21162
#	30352
#	42287
#	53297
#	63185
#	72575
#	83765
#	93875
#	105982
#	114502
#	123835
#	138232
#	149202
#	162087
#	172655
#	183712
#	193620
#	204840
#
# Disc length: 2882 seconds
#
# Revision: 1
# Processed by: cddbd v1.5.2PL0 Copyright (c) Steve Scherf et al.
# Submitted via: EasyCDDAExtractor 10.1.0.1
#
DISCID=fa0b4014
DTITLE=Katie Webster
DYEAR=1991
DGENRE=Blues
TTITLE0=No Bread, No Meat
TTITLE1=I Want You To Love Me
TTITLE2=Baby, Come On
TTITLE3=I Wanna Know
TTITLE4=Glory Of Love
TTITLE5=The Katie Lee
TTITLE6=Hoo Wee, Sweet Daddy
TTITLE7=Sunny Side Of Love
TTITLE8=I Feel So Low
TTITLE9=Goodbye Baby, I'm Still Leaving You (Pt.1)
TTITLE10=Goodbye Baby, I'm Still Leaving You (Pt.2)
TTITLE11=Don't You Know
TTITLE12=Mama Don't Allow
TTITLE13=Close To My Heart
TTITLE14=Hey, Mr. Love
TTITLE15=Open Arms
TTITLE16=Sea Of Love
TTITLE17=I Feel So Low
TTITLE18=Sunny Side Of Love
TTITLE19=Baby, Baby
EXTD=
EXTT0=
EXTT1=
EXTT2=
EXTT3=
EXTT4=
EXTT5=
EXTT6=
EXTT7=
EXTT8=
EXTT9=
EXTT10=
EXTT11=
EXTT12=
EXTT13=
EXTT14=
EXTT15=
EXTT16=
EXTT17=
EXTT18=
EXTT19=
PLAYORDER=
